# xmcd
#
# Track frame offsets: 
#        182
#        16642
#        34005
#        58647
#        85272
#        97625
#        113510
#        131925
#        154425
#        172620
#        195255
#
# Disc length: 2807 seconds
#
# Revision: 3
# Processed by: cddbd v1.5.2PL0 Copyright (c) Steve Scherf et al.
# Submitted via: ExactAudioCopy v0.99pb5
#
DISCID=740af50b
DTITLE=The Commodores - Motown Legends - The Commodores
DYEAR=1993
DGENRE=Blues
TTITLE0=Three Times a Lady
TTITLE1=Come Inside
TTITLE2=Wonderland
TTITLE3=This is Your Life
TTITLE4=Machine Gun
TTITLE5=Brick House
TTITLE6=Sorry to Say
TTITLE7=Painted Picture
TTITLE8=Sail On
TTITLE9=Only You
TTITLE10=Thumpin' Music
EXTD=
EXTT0=L. Richie\n
EXTT1=L. Richie/T. McClary\n
EXTT2=M. Williams\n
EXTT3=L. Richie\n
EXTT4=M Williams\n(Bonus Track]\n
EXTT5=T. McClary/M. Williams/W.Orange/L. \nRichie/R. LaPread/W. King\n
EXTT6=R. LaPread\n
EXTT7=W. Orange/H. Hudson\n
EXTT8=L. Richie\n
EXTT9=M. Williams\n(Bonus Track]\n
EXTT10=W. King\n(Bonus Track]\n
PLAYORDER=
